<svg xmlns="http://www.w3.org/2000/svg" viewBox="0 0 64 64">
  <rect width="64" height="64" rx="12" fill="#081722"></rect>

  <!-- Mast -->
  <rect x="30" y="10" width="4" height="30" rx="1" fill="#d9ae55"></rect>
  <rect x="32" y="10" width="1" height="30" fill="#8f632f" opacity="0.55"></rect>

  <!-- Sails -->
  <path d="M34 13 C45 19 48 29 36 38 L34 38 Z" fill="#5bb9e8"></path>
  <path d="M30 16 C20 22 18 31 28 38 L30 38 Z" fill="#9fbed0"></path>

  <!-- Hull -->
  <path d="M13 39 L51 39 L45 50 L21 50 Z" fill="#d9ae55"></path>
  <path d="M18 43 L46 43" stroke="#081722" stroke-width="3" stroke-linecap="round"></path>

  <!-- Water -->
  <path d="M10 53 C15 50 20 50 25 53 C30 56 35 56 40 53 C45 50 50 50 55 53" fill="none" stroke="#5bb9e8" stroke-width="4" stroke-linecap="round"></path>
</svg>